<svg id="svg" version="1.1" xmlns="http://www.w3.org/2000/svg" xmlns:xlink="http://www.w3.org/1999/xlink" width="400" height="320" viewBox="0, 0, 400,320"><g id="svgg"><path id="path0" d="M225.860 104.400 L 225.760 105.440 223.418 105.327 C 221.283 105.224,221.086 105.266,221.178 105.807 C 221.269 106.333,221.090 106.388,219.600 106.291 C 218.231 106.201,217.920 106.276,217.920 106.691 C 217.920 107.043,217.625 107.200,216.960 107.200 C 216.070 107.200,216.000 107.285,216.000 108.356 L 216.000 109.513 214.558 109.296 C 213.408 109.124,213.076 109.182,212.923 109.580 C 212.790 109.928,212.305 110.080,211.326 110.080 C 210.290 110.080,209.920 110.206,209.920 110.560 C 209.920 110.824,209.713 111.040,209.460 111.040 C 209.176 111.040,208.962 111.436,208.900 112.080 C 208.840 112.703,208.639 113.088,208.400 113.040 C 208.180 112.996,208.000 113.158,208.000 113.400 C 208.000 113.642,207.568 113.926,207.040 114.032 C 206.477 114.145,206.080 114.426,206.080 114.712 C 206.080 114.987,205.800 115.200,205.440 115.200 C 204.947 115.200,204.800 115.413,204.800 116.126 C 204.800 116.653,204.594 117.131,204.320 117.236 C 204.034 117.345,203.840 117.827,203.840 118.427 C 203.840 119.324,203.754 119.418,203.055 119.285 C 202.401 119.159,202.237 119.286,202.070 120.047 C 201.959 120.549,201.665 120.960,201.415 120.960 C 201.143 120.960,200.960 121.282,200.960 121.760 C 200.960 122.400,201.120 122.560,201.760 122.560 C 202.458 122.560,202.560 122.700,202.560 123.661 C 202.560 125.025,202.180 125.298,201.432 124.471 C 200.556 123.503,198.980 123.718,199.105 124.789 C 199.184 125.460,199.394 125.618,200.320 125.706 C 200.936 125.764,201.555 126.016,201.696 126.266 C 201.840 126.521,202.436 126.720,203.056 126.720 C 204.020 126.720,204.160 126.821,204.160 127.520 C 204.160 128.164,204.001 128.320,203.345 128.320 C 202.544 128.320,202.532 128.354,202.625 130.480 L 202.720 132.640 203.840 132.745 C 205.617 132.912,206.080 133.551,206.080 135.841 L 206.080 137.823 209.200 138.030 C 210.916 138.144,213.976 138.252,216.000 138.270 C 220.411 138.310,221.244 138.496,221.385 139.472 C 221.515 140.372,222.203 140.203,222.345 139.236 C 222.506 138.134,223.809 138.446,223.943 139.619 C 224.000 140.113,224.252 140.597,224.503 140.693 C 225.111 140.926,225.091 142.080,224.480 142.080 C 224.181 142.080,224.000 142.382,224.000 142.880 C 224.000 143.515,223.839 143.680,223.218 143.680 C 222.788 143.680,222.248 143.941,222.018 144.261 C 221.534 144.934,220.480 145.406,220.480 144.950 C 220.480 144.779,220.336 144.640,220.160 144.640 C 219.984 144.640,219.840 145.376,219.840 146.275 L 219.840 147.910 218.768 147.785 C 217.867 147.680,217.720 147.751,217.846 148.230 C 217.943 148.603,217.816 148.800,217.477 148.800 C 217.116 148.800,216.960 149.089,216.960 149.760 C 216.960 150.400,216.800 150.720,216.480 150.720 C 216.216 150.720,216.000 150.936,216.000 151.200 C 216.000 151.520,215.680 151.680,215.040 151.680 C 214.400 151.680,214.080 151.840,214.080 152.160 C 214.080 152.424,213.864 152.640,213.600 152.640 C 213.291 152.640,213.118 152.954,213.114 153.520 C 213.108 154.480,211.913 155.840,211.075 155.840 C 210.296 155.840,209.280 157.018,209.280 157.920 C 209.280 158.425,209.099 158.720,208.790 158.720 C 208.520 158.720,208.217 158.936,208.116 159.200 C 208.011 159.474,207.533 159.680,207.006 159.680 C 206.396 159.680,206.080 159.844,206.080 160.160 C 206.080 160.424,205.864 160.640,205.600 160.640 C 205.280 160.640,205.120 160.960,205.120 161.600 C 205.120 162.240,204.960 162.560,204.640 162.560 C 204.376 162.560,204.160 162.776,204.160 163.040 C 204.160 163.360,203.840 163.520,203.200 163.520 C 202.560 163.520,202.240 163.680,202.240 164.000 C 202.240 164.264,202.033 164.480,201.780 164.480 C 201.496 164.480,201.282 164.876,201.220 165.520 C 201.143 166.323,200.953 166.584,200.388 166.664 C 199.380 166.807,197.120 169.024,197.120 169.870 C 197.120 170.359,196.923 170.560,196.442 170.560 C 195.460 170.560,193.280 172.851,193.280 173.882 C 193.280 174.561,193.129 174.720,192.484 174.720 C 191.374 174.720,190.400 175.651,190.400 176.711 C 190.400 177.258,190.228 177.600,189.954 177.600 C 189.709 177.600,189.426 177.816,189.324 178.080 C 189.217 178.361,188.737 178.560,188.170 178.560 C 187.108 178.560,186.874 179.171,187.680 179.840 C 187.944 180.059,188.160 180.509,188.160 180.839 C 188.160 181.170,188.376 181.440,188.640 181.440 C 189.358 181.440,189.220 180.261,188.480 180.067 C 187.617 179.842,187.646 178.880,188.515 178.880 C 189.345 178.880,190.707 177.641,190.714 176.880 C 190.722 176.125,191.777 175.115,192.694 174.986 C 193.205 174.913,193.475 174.632,193.551 174.091 C 193.695 173.072,195.792 170.975,196.811 170.831 C 197.338 170.757,197.633 170.484,197.701 170.011 C 197.831 169.095,199.815 167.111,200.731 166.981 C 201.200 166.914,201.477 166.618,201.549 166.108 C 201.675 165.217,202.775 164.186,203.615 164.171 C 204.296 164.158,205.735 162.620,205.750 161.890 C 205.762 161.259,206.760 160.320,207.418 160.320 C 208.091 160.320,209.600 158.868,209.600 158.220 C 209.600 157.517,210.898 156.172,211.584 156.166 C 212.376 156.157,213.760 154.757,213.760 153.963 C 213.760 153.569,213.963 153.280,214.240 153.280 C 214.504 153.280,214.720 153.064,214.720 152.800 C 214.720 152.480,215.040 152.320,215.680 152.320 C 216.320 152.320,216.640 152.160,216.640 151.840 C 216.640 151.576,216.856 151.360,217.120 151.360 C 217.440 151.360,217.600 151.040,217.600 150.400 C 217.600 149.760,217.760 149.440,218.080 149.440 C 218.344 149.440,218.560 149.224,218.560 148.960 C 218.560 148.668,218.858 148.480,219.323 148.480 C 220.169 148.480,221.120 149.660,221.120 150.709 C 221.120 151.080,221.331 151.360,221.610 151.360 C 221.880 151.360,222.183 151.576,222.284 151.840 C 222.386 152.104,222.822 152.320,223.253 152.320 C 223.695 152.320,223.951 152.460,223.840 152.640 C 223.731 152.816,223.378 152.960,223.055 152.960 C 222.340 152.960,222.014 153.705,222.275 154.745 C 222.439 155.400,222.664 155.520,223.725 155.520 C 224.545 155.520,225.044 155.686,225.164 156.000 C 225.266 156.264,225.621 156.480,225.954 156.480 C 226.426 156.480,226.560 156.713,226.560 157.534 C 226.560 158.447,226.699 158.629,227.600 158.894 C 228.316 159.105,228.672 159.424,228.742 159.920 C 228.798 160.316,229.050 160.640,229.302 160.640 C 229.598 160.640,229.760 160.981,229.760 161.600 C 229.760 162.179,229.927 162.560,230.180 162.560 C 230.411 162.560,231.014 162.992,231.520 163.520 C 232.026 164.048,232.701 164.480,233.020 164.480 C 233.451 164.480,233.600 164.726,233.600 165.440 C 233.600 166.031,233.766 166.400,234.030 166.400 C 234.882 166.400,235.520 167.541,235.520 169.065 C 235.520 169.887,235.664 170.560,235.840 170.560 C 236.016 170.560,236.160 170.781,236.160 171.050 C 236.160 171.320,236.362 171.618,236.608 171.712 C 236.855 171.807,237.130 172.162,237.219 172.502 C 237.333 172.941,237.661 173.120,238.350 173.120 C 239.204 173.120,239.335 173.244,239.449 174.160 L 239.578 175.200 239.629 174.160 C 239.695 172.825,240.960 172.597,240.960 173.920 C 240.960 174.560,241.120 174.720,241.760 174.720 C 242.870 174.720,242.800 175.610,241.680 175.739 C 240.989 175.818,240.778 176.029,240.699 176.720 C 240.643 177.204,240.463 177.600,240.299 177.600 C 240.134 177.600,240.000 177.744,240.000 177.920 C 240.000 178.451,238.760 179.520,238.144 179.520 C 237.397 179.520,236.800 180.129,236.800 180.891 C 236.800 181.676,234.810 183.600,233.860 183.735 C 233.351 183.807,233.085 184.090,233.009 184.640 C 232.948 185.080,232.696 185.555,232.449 185.696 C 232.202 185.837,232.000 186.087,232.000 186.252 C 232.000 186.864,230.875 187.840,230.169 187.840 C 229.572 187.840,229.440 188.014,229.440 188.800 C 229.440 189.407,229.276 189.760,228.994 189.760 C 228.749 189.760,228.466 189.976,228.364 190.240 C 228.263 190.504,227.825 190.720,227.392 190.720 C 226.884 190.720,226.531 190.948,226.400 191.360 C 226.288 191.712,226.063 192.000,225.898 192.000 C 225.734 192.000,225.600 192.432,225.600 192.960 C 225.600 193.609,225.441 193.920,225.110 193.920 C 224.840 193.920,224.537 194.136,224.436 194.400 C 224.334 194.664,223.907 194.880,223.486 194.880 C 222.920 194.880,222.720 195.056,222.720 195.555 C 222.720 196.116,222.856 196.195,223.525 196.027 C 224.481 195.787,225.600 194.890,225.600 194.363 C 225.600 194.157,225.816 193.906,226.080 193.804 C 226.344 193.703,226.560 193.256,226.560 192.810 C 226.560 192.098,226.695 192.000,227.680 192.000 C 228.296 192.000,228.800 191.856,228.800 191.680 C 228.800 191.135,229.991 190.137,230.774 190.026 C 231.272 189.955,231.555 189.671,231.626 189.174 C 231.751 188.289,232.615 187.200,233.191 187.200 C 233.416 187.200,233.600 186.984,233.600 186.720 C 233.600 186.400,233.920 186.240,234.560 186.240 C 235.413 186.240,235.520 186.133,235.520 185.280 C 235.520 184.640,235.680 184.320,236.000 184.320 C 236.264 184.320,236.480 184.037,236.480 183.690 C 236.480 183.262,236.634 183.119,236.960 183.244 C 237.293 183.372,237.440 183.222,237.440 182.754 C 237.440 182.218,237.637 182.080,238.400 182.080 C 239.253 182.080,239.360 181.973,239.360 181.120 C 239.360 180.471,239.519 180.160,239.850 180.160 C 240.120 180.160,240.423 179.944,240.524 179.680 C 240.626 179.416,240.909 179.200,241.154 179.200 C 241.399 179.200,241.600 178.984,241.600 178.720 C 241.600 178.400,241.920 178.240,242.560 178.240 C 243.484 178.240,243.520 178.187,243.520 176.800 C 243.520 175.733,243.644 175.360,244.000 175.360 C 244.333 175.360,244.480 175.026,244.480 174.270 C 244.480 173.185,244.485 173.182,245.754 173.352 C 246.743 173.484,247.073 173.406,247.228 173.001 C 247.338 172.715,247.638 172.480,247.894 172.480 C 248.151 172.480,248.335 172.228,248.303 171.920 C 248.144 170.351,248.345 169.280,248.800 169.280 C 249.064 169.280,249.280 169.064,249.280 168.800 C 249.280 168.480,249.600 168.320,250.240 168.320 C 250.880 168.320,251.200 168.160,251.200 167.840 C 251.200 167.576,251.416 167.360,251.680 167.360 C 251.996 167.360,252.160 167.044,252.160 166.434 C 252.160 165.907,252.366 165.429,252.640 165.324 C 252.904 165.223,253.120 164.920,253.120 164.650 C 253.120 164.339,253.416 164.160,253.930 164.160 C 254.376 164.160,254.823 163.944,254.924 163.680 C 255.026 163.416,255.309 163.200,255.554 163.200 C 255.836 163.200,256.000 162.847,256.000 162.240 C 256.000 161.351,256.085 161.280,257.154 161.280 C 258.031 161.280,258.266 161.168,258.131 160.816 C 258.012 160.506,258.106 160.412,258.416 160.531 C 258.729 160.650,258.880 160.494,258.880 160.050 C 258.880 159.688,259.082 159.277,259.329 159.136 C 259.576 158.995,259.828 158.520,259.889 158.080 C 259.968 157.509,260.229 157.248,260.800 157.169 C 261.240 157.108,261.715 156.856,261.856 156.609 C 261.997 156.362,262.340 156.160,262.618 156.160 C 263.275 156.160,264.320 154.951,264.320 154.191 C 264.320 153.810,264.551 153.600,264.973 153.600 C 265.799 153.600,268.160 151.220,268.160 150.387 C 268.160 149.952,268.380 149.758,268.880 149.754 C 269.839 149.747,271.040 148.435,271.040 147.395 C 271.040 146.866,271.216 146.560,271.520 146.560 C 271.784 146.560,272.000 146.344,272.000 146.080 C 272.000 145.760,272.320 145.600,272.960 145.600 C 273.564 145.600,273.920 145.436,273.920 145.157 C 273.920 144.914,274.208 144.639,274.560 144.547 C 274.943 144.447,275.200 144.111,275.200 143.710 C 275.200 142.797,276.306 141.760,277.280 141.760 C 277.778 141.760,278.080 141.579,278.080 141.280 C 278.080 140.866,279.162 140.800,285.894 140.800 C 294.591 140.800,294.720 140.781,294.720 139.520 C 294.720 138.379,294.563 138.345,288.080 138.064 L 282.880 137.838 282.880 135.799 C 282.880 134.200,282.776 133.760,282.400 133.760 C 282.136 133.760,281.920 133.566,281.920 133.330 C 281.920 132.644,280.826 131.840,279.895 131.840 C 279.158 131.840,279.040 131.707,279.040 130.880 C 279.040 130.323,278.871 129.920,278.638 129.920 C 278.417 129.920,278.045 129.488,277.811 128.960 C 277.552 128.375,277.147 128.000,276.773 128.000 C 276.305 128.000,276.160 127.773,276.160 127.040 C 276.160 126.400,276.000 126.080,275.680 126.080 C 275.416 126.080,275.200 125.864,275.200 125.600 C 275.200 125.336,274.974 125.120,274.697 125.120 C 274.421 125.120,273.978 124.904,273.714 124.640 C 273.450 124.376,272.957 124.160,272.617 124.160 C 272.222 124.160,272.000 123.939,272.000 123.545 C 272.000 123.206,271.568 122.497,271.040 121.969 C 270.389 121.319,270.080 120.692,270.080 120.025 C 270.080 119.144,269.979 119.040,269.120 119.040 C 268.480 119.040,268.160 118.880,268.160 118.560 C 268.160 118.296,267.934 118.080,267.657 118.080 C 266.837 118.080,266.240 117.240,266.240 116.087 C 266.240 114.889,265.768 114.240,264.896 114.240 C 264.579 114.240,264.320 114.024,264.320 113.760 C 264.320 113.496,264.104 113.280,263.840 113.280 C 263.505 113.280,263.360 112.942,263.360 112.160 C 263.360 111.253,263.238 111.040,262.720 111.040 C 262.364 111.040,262.080 110.827,262.080 110.560 C 262.080 110.235,261.755 110.080,261.075 110.080 C 259.905 110.080,259.225 109.348,259.210 108.072 C 259.197 106.913,258.297 106.573,255.099 106.517 L 252.640 106.475 255.200 106.226 C 256.608 106.090,260.748 105.801,264.400 105.584 C 269.298 105.294,271.040 105.085,271.040 104.789 C 271.040 104.569,271.256 104.306,271.520 104.204 C 273.458 103.461,270.775 103.360,248.980 103.360 L 225.961 103.360 225.860 104.400 M208.000 116.480 C 208.000 116.907,207.787 117.120,207.360 117.120 C 206.933 117.120,206.720 116.907,206.720 116.480 C 206.720 116.053,206.933 115.840,207.360 115.840 C 207.787 115.840,208.000 116.053,208.000 116.480 M204.160 121.920 C 204.160 122.347,203.947 122.560,203.520 122.560 C 203.093 122.560,202.880 122.347,202.880 121.920 C 202.880 121.493,203.093 121.280,203.520 121.280 C 203.947 121.280,204.160 121.493,204.160 121.920 M198.080 127.541 C 198.080 128.946,198.114 128.999,198.957 128.901 C 200.450 128.729,200.371 126.080,198.874 126.080 C 198.145 126.080,198.080 126.199,198.080 127.541 M208.260 127.440 C 208.339 127.856,208.155 128.000,207.543 128.000 C 206.924 128.000,206.720 127.836,206.720 127.338 C 206.720 126.500,208.098 126.591,208.260 127.440 M200.000 131.223 C 200.000 133.197,200.071 133.473,200.553 133.380 C 201.438 133.210,201.779 131.752,201.285 130.255 C 200.588 128.145,200.000 128.588,200.000 131.223 M198.080 131.021 C 198.080 131.733,197.937 132.130,197.699 132.080 C 197.199 131.975,196.964 133.092,197.396 133.524 C 197.632 133.760,197.881 133.738,198.226 133.451 C 198.784 132.989,198.917 130.399,198.400 130.080 C 198.210 129.962,198.080 130.343,198.080 131.021 M300.160 138.586 C 298.773 138.777,298.794 138.786,300.720 138.832 C 302.690 138.879,303.258 138.753,302.160 138.512 C 301.852 138.444,300.952 138.478,300.160 138.586 M225.543 143.253 C 225.388 144.056,224.640 144.167,224.640 143.387 C 224.640 142.994,224.847 142.720,225.143 142.720 C 225.441 142.720,225.605 142.938,225.543 143.253 M223.814 144.514 C 224.586 144.810,224.417 145.280,223.539 145.280 C 222.736 145.280,222.259 144.887,222.622 144.525 C 222.878 144.269,223.168 144.266,223.814 144.514 M221.986 148.361 C 221.668 148.679,220.800 148.039,220.800 147.486 C 220.800 146.092,221.911 145.640,222.020 146.989 C 222.075 147.670,222.060 148.287,221.986 148.361 M223.942 150.003 C 224.020 150.548,223.885 150.720,223.382 150.720 C 222.884 150.720,222.720 150.516,222.720 149.897 C 222.720 148.846,223.791 148.940,223.942 150.003 M218.560 151.520 C 218.560 151.814,218.859 152.000,219.332 152.000 C 219.983 152.000,220.138 152.200,220.320 153.280 C 220.581 154.828,220.989 154.938,221.209 153.520 C 221.327 152.758,221.193 152.288,220.709 151.760 C 219.955 150.939,218.560 150.783,218.560 151.520 M218.400 155.520 C 218.288 155.701,218.557 155.840,219.021 155.840 C 219.472 155.840,219.840 155.696,219.840 155.520 C 219.840 155.344,219.560 155.200,219.219 155.200 C 218.877 155.200,218.509 155.344,218.400 155.520 M222.204 157.580 C 221.839 158.529,222.331 159.087,223.438 158.980 C 224.309 158.896,224.480 158.749,224.480 158.080 C 224.480 157.106,222.548 156.681,222.204 157.580 M250.560 167.360 C 250.560 167.536,250.272 167.680,249.920 167.680 C 249.568 167.680,249.280 167.536,249.280 167.360 C 249.280 167.184,249.568 167.040,249.920 167.040 C 250.272 167.040,250.560 167.184,250.560 167.360 M247.680 169.760 C 247.680 170.200,247.536 170.560,247.360 170.560 C 247.184 170.560,247.040 170.200,247.040 169.760 C 247.040 169.320,247.184 168.960,247.360 168.960 C 247.536 168.960,247.680 169.320,247.680 169.760 M240.000 171.147 C 240.000 171.960,239.659 172.221,239.149 171.798 C 238.510 171.267,238.630 170.560,239.360 170.560 C 239.767 170.560,240.000 170.773,240.000 171.147 M244.160 171.845 C 244.507 172.073,244.537 172.227,244.269 172.401 C 244.065 172.534,243.849 173.074,243.789 173.601 C 243.649 174.832,243.095 174.840,242.882 173.614 C 242.768 172.951,242.480 172.602,241.919 172.446 L 241.120 172.224 241.981 172.192 C 242.455 172.174,242.931 172.016,243.040 171.840 C 243.286 171.441,243.547 171.443,244.160 171.845 M191.280 183.381 C 191.676 183.832,192.000 184.444,192.000 184.741 C 192.000 185.047,192.249 185.280,192.576 185.280 C 192.893 185.280,193.325 185.424,193.536 185.600 C 193.815 185.833,193.833 185.815,193.600 185.536 C 193.424 185.325,193.280 184.893,193.280 184.576 C 193.280 184.249,193.047 184.000,192.741 184.000 C 192.444 184.000,191.832 183.676,191.381 183.280 L 190.560 182.560 191.280 183.381 M195.840 188.640 C 195.840 188.904,196.099 189.120,196.416 189.120 C 196.733 189.120,197.165 189.293,197.376 189.504 C 197.660 189.788,197.656 189.664,197.360 189.027 C 196.935 188.111,195.840 187.833,195.840 188.640 M200.997 192.504 C 200.977 192.870,201.356 193.518,201.840 193.944 L 202.720 194.720 202.032 193.920 C 201.654 193.480,201.274 192.832,201.189 192.480 C 201.039 191.860,201.033 191.861,200.997 192.504 M203.360 195.112 C 204.274 195.336,204.800 195.833,204.800 196.470 C 204.800 196.773,205.124 197.295,205.520 197.630 C 206.239 198.239,206.239 198.239,205.680 197.575 C 205.372 197.209,205.120 196.691,205.120 196.424 C 205.120 195.753,204.077 194.872,203.335 194.917 C 202.754 194.952,202.756 194.963,203.360 195.112 M210.000 202.098 C 210.484 202.635,210.880 203.319,210.880 203.618 C 210.880 203.916,211.096 204.160,211.360 204.160 C 211.627 204.160,211.840 203.876,211.840 203.520 C 211.840 203.168,211.668 202.880,211.458 202.880 C 211.247 202.880,210.635 202.484,210.098 202.000 L 209.120 201.120 210.000 202.098 " stroke="none" fill="#838488" fill-rule="evenodd"></path><path id="path1" d="M88.580 104.400 L 88.480 105.440 86.364 105.335 C 84.456 105.240,84.231 105.294,84.077 105.884 C 83.923 106.470,83.735 106.517,82.248 106.341 C 80.742 106.163,80.600 106.200,80.695 106.752 C 80.756 107.108,80.634 107.327,80.400 107.280 C 80.180 107.236,79.820 107.164,79.600 107.120 C 79.348 107.070,79.162 107.499,79.098 108.282 L 78.996 109.524 77.471 109.343 C 75.853 109.152,75.075 109.618,74.827 110.929 C 74.751 111.331,74.383 111.552,73.677 111.620 C 72.805 111.705,72.640 111.850,72.640 112.538 C 72.640 113.191,72.515 113.322,72.015 113.191 C 71.473 113.050,71.414 113.152,71.575 113.954 C 71.759 114.873,71.256 115.284,70.932 114.480 C 70.806 114.167,70.765 114.169,70.745 114.490 C 70.731 114.716,70.936 114.983,71.200 115.084 C 71.464 115.186,71.680 115.469,71.680 115.714 C 71.680 115.959,71.896 116.160,72.160 116.160 C 72.480 116.160,72.640 116.480,72.640 117.120 C 72.640 117.973,72.747 118.080,73.600 118.080 C 74.240 118.080,74.560 118.240,74.560 118.560 C 74.560 118.824,74.776 119.040,75.040 119.040 C 75.304 119.040,75.520 119.256,75.520 119.520 C 75.520 119.784,75.736 120.000,76.000 120.000 C 76.320 120.000,76.480 120.320,76.480 120.960 C 76.480 121.813,76.587 121.920,77.440 121.920 C 78.080 121.920,78.400 122.080,78.400 122.400 C 78.400 122.664,78.616 122.880,78.880 122.880 C 79.183 122.880,79.360 123.186,79.360 123.710 C 79.360 124.271,79.568 124.594,80.000 124.707 C 80.354 124.800,80.640 125.144,80.640 125.477 C 80.640 125.934,80.873 126.080,81.600 126.080 C 82.240 126.080,82.560 126.240,82.560 126.560 C 82.560 126.824,82.776 127.040,83.040 127.040 C 83.360 127.040,83.520 127.360,83.520 128.000 C 83.520 128.640,83.680 128.960,84.000 128.960 C 84.264 128.960,84.480 129.176,84.480 129.440 C 84.480 129.760,84.800 129.920,85.440 129.920 C 86.080 129.920,86.400 130.080,86.400 130.400 C 86.400 130.664,86.616 130.880,86.880 130.880 C 87.200 130.880,87.360 131.200,87.360 131.840 C 87.360 132.480,87.520 132.800,87.840 132.800 C 88.104 132.800,88.320 133.016,88.320 133.280 C 88.320 133.579,88.622 133.760,89.120 133.760 C 90.082 133.760,91.029 134.636,91.320 135.794 C 91.437 136.259,91.745 136.640,92.006 136.640 C 92.267 136.640,92.480 136.928,92.480 137.280 C 92.480 137.778,92.693 137.920,93.440 137.920 C 94.080 137.920,94.400 138.080,94.400 138.400 C 94.400 138.664,94.616 138.880,94.880 138.880 C 95.200 138.880,95.360 139.200,95.360 139.840 C 95.360 140.693,95.467 140.800,96.320 140.800 C 96.930 140.800,97.280 140.964,97.280 141.248 C 97.280 141.503,97.799 141.818,98.480 141.978 C 99.461 142.209,99.698 142.419,99.781 143.130 C 99.855 143.764,100.062 144.000,100.545 144.000 C 101.286 144.000,102.720 145.382,102.720 146.096 C 102.720 146.351,102.864 146.560,103.040 146.560 C 103.216 146.560,103.360 146.920,103.360 147.360 C 103.360 148.057,103.501 148.160,104.449 148.160 C 105.596 148.160,106.240 149.142,106.240 150.890 C 106.240 151.635,106.950 151.987,108.470 151.996 C 109.325 152.000,110.716 153.366,110.726 154.210 C 110.733 154.861,112.091 156.160,112.765 156.160 C 113.447 156.160,114.559 157.296,114.566 158.000 C 114.573 158.708,115.913 160.000,116.640 160.000 C 117.365 160.000,118.707 161.292,118.714 161.996 C 118.722 162.719,119.685 163.837,120.311 163.850 C 121.065 163.866,122.493 165.274,122.613 166.121 C 122.684 166.627,122.964 166.915,123.453 166.984 C 124.401 167.118,126.322 169.039,126.456 169.987 C 126.527 170.488,126.813 170.756,127.360 170.833 C 128.337 170.970,130.474 173.144,130.616 174.145 C 130.677 174.573,130.984 174.921,131.360 174.990 C 132.299 175.160,133.120 176.000,133.120 176.789 C 133.120 177.484,134.642 178.870,135.427 178.891 C 136.097 178.908,137.280 180.054,137.286 180.691 C 137.292 181.362,138.592 182.715,139.245 182.731 C 139.949 182.748,141.120 183.891,141.120 184.562 C 141.120 185.362,142.425 186.880,143.114 186.880 C 143.790 186.880,145.280 188.243,145.280 188.861 C 145.280 189.459,146.612 190.720,147.245 190.720 C 147.863 190.720,149.021 191.968,149.172 192.796 C 149.235 193.146,149.558 193.485,149.889 193.548 C 150.898 193.743,152.960 196.016,152.960 196.935 C 152.960 197.599,153.114 197.760,153.749 197.760 C 154.704 197.760,156.707 199.658,156.856 200.705 C 156.924 201.186,157.233 201.491,157.760 201.598 C 158.890 201.827,160.000 202.892,160.000 203.747 C 160.000 204.793,160.957 205.760,161.991 205.760 C 162.480 205.760,162.880 205.904,162.880 206.080 C 162.880 206.256,163.096 206.400,163.360 206.400 C 163.707 206.400,163.840 206.756,163.840 207.680 C 163.840 208.384,163.984 208.960,164.160 208.960 C 164.336 208.960,164.480 209.176,164.480 209.440 C 164.480 209.760,164.800 209.920,165.440 209.920 C 166.080 209.920,166.400 210.080,166.400 210.400 C 166.400 210.720,166.720 210.880,167.360 210.880 C 168.223 210.880,168.320 210.982,168.320 211.885 L 168.320 212.890 170.115 212.704 C 171.708 212.540,171.928 212.589,172.072 213.140 C 172.206 213.649,172.520 213.760,173.832 213.760 C 175.160 213.760,175.396 213.846,175.233 214.269 C 175.064 214.711,175.343 214.763,177.359 214.669 L 179.680 214.560 179.780 215.600 L 179.881 216.640 187.040 216.640 L 194.199 216.640 194.300 215.600 L 194.400 214.560 197.200 214.673 C 199.601 214.769,200.000 214.712,200.000 214.273 C 200.000 213.888,200.319 213.760,201.280 213.760 C 202.353 213.760,202.560 213.655,202.560 213.110 C 202.560 212.277,203.345 211.978,204.340 212.431 C 205.048 212.754,205.120 212.716,205.120 212.019 C 205.120 210.477,206.250 209.540,206.880 210.560 C 207.204 211.085,208.960 210.950,208.960 210.400 C 208.960 210.136,209.176 209.920,209.440 209.920 C 209.704 209.920,209.920 209.704,209.920 209.440 C 209.920 209.176,210.059 208.960,210.230 208.960 C 210.400 208.960,210.457 208.744,210.355 208.479 C 209.949 207.421,210.524 206.400,211.526 206.400 C 212.051 206.400,212.480 206.256,212.480 206.080 C 212.480 205.904,212.721 205.760,213.016 205.760 C 213.459 205.760,213.422 205.622,212.800 204.960 C 212.387 204.520,211.786 204.160,211.464 204.160 C 211.115 204.160,210.880 203.928,210.880 203.583 C 210.880 203.265,210.376 202.517,209.760 201.920 C 209.144 201.323,208.640 200.604,208.640 200.321 C 208.640 199.663,208.017 199.040,207.359 199.040 C 206.718 199.040,204.800 197.098,204.800 196.449 C 204.800 195.819,204.164 195.200,203.519 195.200 C 202.846 195.200,200.960 193.243,200.960 192.545 C 200.960 192.234,200.713 192.000,200.387 192.000 C 200.071 192.000,199.177 191.352,198.400 190.560 C 197.623 189.768,196.729 189.120,196.413 189.120 C 196.076 189.120,195.840 188.884,195.840 188.547 C 195.840 187.821,193.279 185.280,192.548 185.280 C 192.235 185.280,192.000 185.035,192.000 184.707 C 192.000 183.981,189.439 181.440,188.708 181.440 C 188.385 181.440,188.160 181.193,188.160 180.839 C 188.160 180.218,187.599 179.580,187.040 179.567 C 186.864 179.562,186.598 179.046,186.448 178.419 C 186.214 177.438,186.048 177.280,185.248 177.280 C 184.430 177.280,184.320 177.166,184.320 176.320 C 184.320 175.680,184.160 175.360,183.840 175.360 C 183.576 175.360,183.360 175.144,183.360 174.880 C 183.360 174.613,183.076 174.400,182.720 174.400 C 182.293 174.400,182.080 174.187,182.080 173.760 C 182.080 173.270,181.867 173.120,181.170 173.120 C 179.838 173.120,178.666 171.933,178.404 170.320 C 178.198 169.050,178.116 168.960,177.163 168.960 C 176.437 168.960,175.907 168.692,175.326 168.029 C 174.877 167.518,174.161 167.050,173.735 166.989 C 173.222 166.917,172.926 166.640,172.859 166.171 C 172.734 165.291,170.688 163.200,169.952 163.200 C 169.276 163.200,168.642 162.592,168.634 161.936 C 168.624 161.145,166.637 159.106,165.760 158.988 C 165.213 158.914,164.927 158.650,164.857 158.152 C 164.713 157.141,162.885 155.268,161.920 155.143 C 161.347 155.069,161.088 154.813,161.007 154.241 C 160.866 153.238,159.061 151.452,158.045 151.308 C 157.472 151.227,157.254 150.969,157.175 150.278 C 157.114 149.743,156.677 149.026,156.135 148.570 C 155.578 148.101,155.200 147.471,155.200 147.012 C 155.200 146.439,155.025 146.240,154.522 146.240 C 153.645 146.240,151.455 144.050,151.311 143.029 C 151.232 142.468,150.968 142.209,150.400 142.132 C 149.960 142.073,149.224 141.618,148.764 141.120 C 148.304 140.623,147.584 140.167,147.164 140.108 C 146.644 140.035,146.366 139.758,146.293 139.243 C 146.234 138.826,145.766 138.075,145.253 137.573 C 144.740 137.072,144.320 136.513,144.320 136.331 C 144.320 136.149,143.888 136.000,143.360 136.000 C 142.507 136.000,142.400 135.893,142.400 135.040 C 142.400 134.512,142.256 134.080,142.080 134.080 C 141.529 134.080,141.731 133.175,142.320 133.006 C 142.628 132.918,142.340 132.924,141.680 133.019 C 140.718 133.157,140.480 133.089,140.480 132.676 C 140.480 132.316,140.189 132.160,139.520 132.160 C 138.667 132.160,138.560 132.053,138.560 131.200 C 138.560 130.560,138.400 130.240,138.080 130.240 C 137.816 130.240,137.600 130.080,137.600 129.885 C 137.600 129.249,136.178 128.011,135.440 128.006 C 134.855 128.001,134.720 127.821,134.720 127.040 C 134.720 126.419,134.558 126.080,134.260 126.080 C 133.976 126.080,133.762 125.684,133.700 125.040 C 133.640 124.417,133.439 124.032,133.200 124.080 C 132.939 124.132,132.800 123.759,132.800 123.008 L 132.800 121.856 131.360 121.970 L 129.920 122.085 129.920 120.562 L 129.920 119.040 128.295 119.040 L 126.669 119.040 126.880 118.080 C 127.103 117.063,126.560 116.687,126.301 117.680 C 126.220 117.988,126.138 117.556,126.117 116.720 C 126.086 115.426,125.985 115.200,125.440 115.200 C 125.084 115.200,124.800 114.987,124.800 114.720 C 124.800 114.400,124.480 114.240,123.840 114.240 C 123.119 114.240,122.880 114.092,122.880 113.648 C 122.880 113.139,122.679 113.076,121.440 113.200 C 120.169 113.327,120.000 113.269,120.000 112.709 C 120.000 112.359,119.653 111.846,119.228 111.568 C 118.803 111.289,118.360 110.625,118.242 110.091 C 118.017 109.064,116.637 108.727,115.528 109.428 C 114.938 109.801,114.572 109.287,114.565 108.076 C 114.560 107.223,114.515 107.200,113.262 107.400 C 112.108 107.585,111.943 107.530,111.780 106.908 C 111.627 106.321,111.444 106.241,110.656 106.414 C 109.865 106.588,109.686 106.508,109.530 105.910 C 109.359 105.256,109.208 105.214,107.582 105.382 C 104.876 105.661,104.000 105.392,104.000 104.280 L 104.000 103.360 96.340 103.360 L 88.681 103.360 88.580 104.400 " stroke="none" fill="#048cd0" fill-rule="evenodd"></path><path id="path2" d="M206.720 116.480 C 206.720 116.907,206.933 117.120,207.360 117.120 C 207.787 117.120,208.000 116.907,208.000 116.480 C 208.000 116.053,207.787 115.840,207.360 115.840 C 206.933 115.840,206.720 116.053,206.720 116.480 M202.880 121.920 C 202.880 122.347,203.093 122.560,203.520 122.560 C 203.947 122.560,204.160 122.347,204.160 121.920 C 204.160 121.493,203.947 121.280,203.520 121.280 C 203.093 121.280,202.880 121.493,202.880 121.920 M200.960 123.310 C 200.960 124.099,201.979 125.274,202.346 124.907 C 202.979 124.274,202.551 122.560,201.760 122.560 C 201.134 122.560,200.960 122.723,200.960 123.310 M199.040 125.687 C 199.040 125.752,199.264 126.029,199.537 126.303 C 200.381 127.147,200.018 128.779,198.960 128.901 C 198.097 129.001,197.769 129.690,198.400 130.080 C 198.899 130.388,198.786 132.987,198.254 133.428 C 197.998 133.641,197.638 133.722,197.454 133.609 C 197.229 133.470,197.120 134.613,197.120 137.101 L 197.120 140.800 210.680 140.800 L 224.239 140.800 224.028 139.760 C 223.765 138.469,222.514 138.079,222.345 139.236 C 222.203 140.203,221.515 140.372,221.385 139.472 C 221.244 138.496,220.411 138.310,216.000 138.270 C 213.976 138.252,210.916 138.144,209.200 138.030 L 206.080 137.823 206.080 135.841 C 206.080 133.551,205.617 132.912,203.840 132.745 L 202.720 132.640 202.625 130.480 C 202.532 128.354,202.544 128.320,203.345 128.320 C 204.001 128.320,204.160 128.164,204.160 127.520 C 204.160 126.821,204.020 126.720,203.056 126.720 C 202.449 126.720,201.837 126.522,201.696 126.280 C 201.476 125.902,199.040 125.358,199.040 125.687 M206.720 127.338 C 206.720 127.836,206.924 128.000,207.543 128.000 C 208.594 128.000,208.500 126.929,207.437 126.778 C 206.892 126.700,206.720 126.835,206.720 127.338 M201.285 130.255 C 201.779 131.752,201.438 133.210,200.553 133.380 C 200.071 133.473,200.000 133.197,200.000 131.223 C 200.000 128.588,200.588 128.145,201.285 130.255 M224.640 143.387 C 224.640 144.167,225.388 144.056,225.543 143.253 C 225.605 142.938,225.441 142.720,225.143 142.720 C 224.847 142.720,224.640 142.994,224.640 143.387 M222.622 144.525 C 222.259 144.887,222.736 145.280,223.539 145.280 C 224.417 145.280,224.586 144.810,223.814 144.514 C 223.168 144.266,222.878 144.269,222.622 144.525 M221.360 146.316 C 220.655 147.026,220.637 148.029,221.326 148.293 C 222.050 148.571,222.135 148.412,222.020 146.989 C 221.925 145.810,221.894 145.778,221.360 146.316 M218.560 148.960 C 218.560 149.224,218.344 149.440,218.080 149.440 C 217.760 149.440,217.600 149.760,217.600 150.400 C 217.600 151.040,217.440 151.360,217.120 151.360 C 216.856 151.360,216.640 151.576,216.640 151.840 C 216.640 152.160,216.320 152.320,215.680 152.320 C 215.040 152.320,214.720 152.480,214.720 152.800 C 214.720 153.064,214.504 153.280,214.240 153.280 C 213.963 153.280,213.760 153.569,213.760 153.963 C 213.760 154.757,212.376 156.157,211.584 156.166 C 210.898 156.172,209.600 157.517,209.600 158.220 C 209.600 158.894,208.080 160.320,207.363 160.320 C 206.727 160.320,205.764 161.290,205.750 161.945 C 205.735 162.631,204.270 164.159,203.615 164.171 C 202.775 164.186,201.675 165.217,201.549 166.108 C 201.477 166.618,201.200 166.914,200.731 166.981 C 200.341 167.036,199.523 167.581,198.912 168.192 C 198.301 168.803,197.756 169.621,197.701 170.011 C 197.633 170.484,197.338 170.757,196.811 170.831 C 195.792 170.975,193.695 173.072,193.551 174.091 C 193.475 174.632,193.205 174.913,192.694 174.986 C 191.777 175.115,190.722 176.125,190.714 176.880 C 190.707 177.641,189.345 178.880,188.515 178.880 C 187.646 178.880,187.617 179.842,188.480 180.067 C 188.832 180.159,189.120 180.454,189.120 180.721 C 189.120 181.364,192.003 183.984,192.720 183.993 C 193.038 183.997,193.280 184.243,193.280 184.561 C 193.280 185.279,195.949 188.160,196.615 188.160 C 196.893 188.160,197.120 188.371,197.120 188.629 C 197.120 189.279,200.022 192.000,200.714 192.000 C 201.036 192.000,201.284 192.242,201.290 192.560 C 201.304 193.351,202.732 194.880,203.455 194.880 C 204.120 194.880,205.120 195.821,205.120 196.447 C 205.120 197.250,206.769 199.002,207.618 199.101 C 208.232 199.172,208.559 199.464,208.794 200.152 C 209.143 201.172,210.781 202.855,211.440 202.871 C 211.660 202.876,211.840 203.108,211.840 203.387 C 211.840 203.932,213.887 206.080,214.406 206.080 C 214.579 206.080,214.720 205.792,214.720 205.440 C 214.720 204.942,214.933 204.800,215.680 204.800 C 216.533 204.800,216.640 204.693,216.640 203.840 C 216.640 203.093,216.782 202.880,217.280 202.880 C 217.636 202.880,217.920 202.667,217.920 202.400 C 217.920 202.136,218.136 201.920,218.400 201.920 C 218.720 201.920,218.880 201.600,218.880 200.960 C 218.880 200.037,219.377 199.752,220.599 199.975 C 220.753 200.003,220.793 199.804,220.689 199.533 C 220.558 199.192,220.694 199.040,221.130 199.040 C 221.543 199.040,221.760 198.823,221.760 198.410 C 221.760 197.974,221.912 197.838,222.253 197.969 C 222.524 198.073,222.723 198.033,222.695 197.879 C 222.400 196.263,222.765 194.880,223.486 194.880 C 223.907 194.880,224.334 194.664,224.436 194.400 C 224.537 194.136,224.840 193.920,225.110 193.920 C 225.441 193.920,225.600 193.609,225.600 192.960 C 225.600 192.432,225.734 192.000,225.898 192.000 C 226.063 192.000,226.288 191.712,226.400 191.360 C 226.531 190.948,226.884 190.720,227.392 190.720 C 227.825 190.720,228.263 190.504,228.364 190.240 C 228.466 189.976,228.749 189.760,228.994 189.760 C 229.276 189.760,229.440 189.407,229.440 188.800 C 229.440 188.014,229.572 187.840,230.169 187.840 C 230.875 187.840,232.000 186.864,232.000 186.252 C 232.000 186.087,232.202 185.837,232.449 185.696 C 232.696 185.555,232.948 185.080,233.009 184.640 C 233.085 184.090,233.351 183.807,233.860 183.735 C 234.810 183.600,236.800 181.676,236.800 180.891 C 236.800 180.129,237.397 179.520,238.144 179.520 C 238.760 179.520,240.000 178.451,240.000 177.920 C 240.000 177.744,240.134 177.600,240.299 177.600 C 240.463 177.600,240.643 177.204,240.699 176.720 C 240.778 176.029,240.989 175.818,241.680 175.739 C 242.800 175.610,242.870 174.720,241.760 174.720 C 241.120 174.720,240.960 174.560,240.960 173.920 C 240.960 172.625,239.756 172.836,239.591 174.160 L 239.462 175.200 239.411 174.160 C 239.365 173.222,239.263 173.120,238.370 173.120 C 237.661 173.120,237.334 172.945,237.219 172.502 C 237.130 172.162,236.855 171.807,236.608 171.712 C 236.362 171.618,236.160 171.320,236.160 171.050 C 236.160 170.781,236.016 170.560,235.840 170.560 C 235.664 170.560,235.520 169.862,235.520 169.010 C 235.520 167.470,234.886 166.400,233.975 166.400 C 233.769 166.400,233.600 165.968,233.600 165.440 C 233.600 164.726,233.451 164.480,233.020 164.480 C 232.701 164.480,232.026 164.048,231.520 163.520 C 231.014 162.992,230.411 162.560,230.180 162.560 C 229.927 162.560,229.760 162.179,229.760 161.600 C 229.760 160.981,229.598 160.640,229.302 160.640 C 229.050 160.640,228.798 160.316,228.742 159.920 C 228.672 159.424,228.316 159.105,227.600 158.894 C 226.699 158.629,226.560 158.447,226.560 157.534 C 226.560 156.713,226.426 156.480,225.954 156.480 C 225.621 156.480,225.266 156.264,225.164 156.000 C 225.044 155.686,224.545 155.520,223.725 155.520 C 222.664 155.520,222.439 155.400,222.275 154.745 C 222.014 153.705,222.340 152.960,223.055 152.960 C 223.378 152.960,223.731 152.816,223.840 152.640 C 223.951 152.460,223.695 152.320,223.253 152.320 C 222.822 152.320,222.386 152.104,222.284 151.840 C 222.183 151.576,221.880 151.360,221.610 151.360 C 221.331 151.360,221.120 151.080,221.120 150.709 C 221.120 149.660,220.169 148.480,219.323 148.480 C 218.858 148.480,218.560 148.668,218.560 148.960 M222.720 149.897 C 222.720 150.516,222.884 150.720,223.382 150.720 C 223.885 150.720,224.020 150.548,223.942 150.003 C 223.791 148.940,222.720 148.846,222.720 149.897 M220.709 151.760 C 221.193 152.288,221.327 152.758,221.209 153.520 C 220.989 154.938,220.581 154.828,220.320 153.280 C 220.138 152.200,219.983 152.000,219.332 152.000 C 218.859 152.000,218.560 151.814,218.560 151.520 C 218.560 150.783,219.955 150.939,220.709 151.760 M219.840 155.520 C 219.840 155.696,219.472 155.840,219.021 155.840 C 218.557 155.840,218.288 155.701,218.400 155.520 C 218.509 155.344,218.877 155.200,219.219 155.200 C 219.560 155.200,219.840 155.344,219.840 155.520 M224.480 158.080 C 224.480 158.749,224.309 158.896,223.438 158.980 C 222.331 159.087,221.839 158.529,222.204 157.580 C 222.548 156.681,224.480 157.106,224.480 158.080 M249.280 167.360 C 249.280 167.536,249.568 167.680,249.920 167.680 C 250.272 167.680,250.560 167.536,250.560 167.360 C 250.560 167.184,250.272 167.040,249.920 167.040 C 249.568 167.040,249.280 167.184,249.280 167.360 M247.040 169.760 C 247.040 170.200,247.184 170.560,247.360 170.560 C 247.536 170.560,247.680 170.200,247.680 169.760 C 247.680 169.320,247.536 168.960,247.360 168.960 C 247.184 168.960,247.040 169.320,247.040 169.760 M238.720 171.001 C 238.720 171.544,239.501 172.232,239.789 171.944 C 240.265 171.469,239.983 170.560,239.360 170.560 C 239.008 170.560,238.720 170.758,238.720 171.001 M243.040 171.840 C 242.931 172.016,242.455 172.174,241.981 172.192 L 241.120 172.224 241.919 172.446 C 242.480 172.602,242.768 172.951,242.882 173.614 C 243.095 174.840,243.649 174.832,243.789 173.601 C 243.849 173.074,244.065 172.534,244.269 172.401 C 244.537 172.227,244.507 172.073,244.160 171.845 C 243.547 171.443,243.286 171.441,243.040 171.840 " stroke="none" fill="#5a5a5b" fill-rule="evenodd"></path><path id="path3" d="M86.460 104.400 C 86.548 105.320,86.671 105.440,87.520 105.440 C 88.369 105.440,88.492 105.320,88.580 104.400 C 88.677 103.399,88.637 103.360,87.520 103.360 C 86.403 103.360,86.363 103.399,86.460 104.400 M104.000 104.292 C 104.000 105.240,105.940 106.021,106.868 105.447 C 108.029 104.730,107.196 103.360,105.600 103.360 C 104.046 103.360,104.000 103.387,104.000 104.292 M82.621 105.840 C 82.680 106.148,83.013 106.400,83.360 106.400 C 83.707 106.400,84.040 106.148,84.099 105.840 C 84.180 105.421,83.994 105.280,83.360 105.280 C 82.726 105.280,82.540 105.421,82.621 105.840 M109.501 105.840 C 109.560 106.148,109.893 106.400,110.240 106.400 C 110.587 106.400,110.920 106.148,110.979 105.840 C 111.060 105.421,110.874 105.280,110.240 105.280 C 109.606 105.280,109.420 105.421,109.501 105.840 M79.360 106.549 C 79.360 106.932,80.490 107.563,80.736 107.317 C 80.835 107.218,80.838 106.936,80.744 106.689 C 80.551 106.187,79.360 106.066,79.360 106.549 M111.741 106.800 C 111.815 107.184,112.148 107.360,112.800 107.360 C 113.452 107.360,113.785 107.184,113.859 106.800 C 113.946 106.349,113.739 106.240,112.800 106.240 C 111.861 106.240,111.654 106.349,111.741 106.800 M76.540 108.240 C 76.703 109.935,79.040 110.028,79.040 108.339 C 79.040 107.220,79.017 107.200,77.740 107.200 C 76.466 107.200,76.441 107.221,76.540 108.240 M114.560 107.952 C 114.560 109.352,114.864 109.791,115.571 109.413 C 116.466 108.934,116.258 107.397,115.280 107.258 C 114.699 107.175,114.560 107.309,114.560 107.952 M72.640 110.570 C 72.640 110.840,72.424 111.143,72.160 111.244 C 71.886 111.349,71.680 111.827,71.680 112.354 C 71.680 112.964,71.844 113.280,72.160 113.280 C 72.455 113.280,72.640 112.980,72.640 112.500 C 72.640 111.854,72.819 111.703,73.680 111.620 C 75.300 111.464,75.392 110.080,73.782 110.080 C 72.970 110.080,72.640 110.222,72.640 110.570 M118.400 110.553 C 118.400 110.813,118.760 111.261,119.200 111.549 C 119.640 111.838,120.000 112.345,120.000 112.677 C 120.000 113.136,120.233 113.280,120.980 113.280 C 122.387 113.280,122.295 111.262,120.880 111.099 C 120.376 111.041,120.000 110.801,120.000 110.539 C 120.000 110.263,119.681 110.080,119.200 110.080 C 118.708 110.080,118.400 110.262,118.400 110.553 M70.725 113.520 C 70.731 114.246,71.263 115.084,71.541 114.806 C 71.842 114.505,71.417 112.960,71.034 112.960 C 70.861 112.960,70.722 113.212,70.725 113.520 M126.720 118.540 C 126.720 118.900,127.040 119.040,127.867 119.040 C 129.313 119.040,129.202 118.285,127.735 118.140 C 126.985 118.066,126.720 118.170,126.720 118.540 M129.920 121.600 C 129.920 122.020,130.075 122.160,130.400 122.036 C 130.664 121.934,130.880 121.738,130.880 121.600 C 130.880 121.462,130.664 121.266,130.400 121.164 C 130.075 121.040,129.920 121.180,129.920 121.600 M133.760 125.440 C 133.760 125.796,133.973 126.080,134.240 126.080 C 134.560 126.080,134.720 126.400,134.720 127.040 C 134.720 127.821,134.855 128.001,135.440 128.006 C 136.178 128.011,137.600 129.249,137.600 129.885 C 137.600 130.080,137.816 130.240,138.080 130.240 C 138.400 130.240,138.560 130.560,138.560 131.200 C 138.560 132.053,138.667 132.160,139.520 132.160 C 140.160 132.160,140.480 132.320,140.480 132.640 C 140.480 132.907,140.764 133.120,141.120 133.120 C 141.476 133.120,141.760 133.333,141.760 133.600 C 141.760 133.864,141.904 134.080,142.080 134.080 C 142.256 134.080,142.400 134.512,142.400 135.040 C 142.400 135.893,142.507 136.000,143.360 136.000 C 143.888 136.000,144.320 136.149,144.320 136.331 C 144.320 136.513,144.740 137.072,145.253 137.573 C 145.766 138.075,146.234 138.826,146.293 139.243 C 146.366 139.758,146.644 140.035,147.164 140.108 C 147.584 140.167,148.304 140.623,148.764 141.120 C 149.224 141.618,149.960 142.073,150.400 142.132 C 150.968 142.209,151.232 142.468,151.311 143.029 C 151.455 144.050,153.645 146.240,154.522 146.240 C 155.025 146.240,155.200 146.439,155.200 147.012 C 155.200 147.471,155.578 148.101,156.135 148.570 C 156.677 149.026,157.114 149.743,157.175 150.278 C 157.254 150.969,157.472 151.227,158.045 151.308 C 159.061 151.452,160.866 153.238,161.007 154.241 C 161.088 154.813,161.347 155.069,161.920 155.143 C 162.885 155.268,164.713 157.141,164.857 158.152 C 164.927 158.650,165.213 158.914,165.760 158.988 C 166.637 159.106,168.624 161.145,168.634 161.936 C 168.642 162.592,169.276 163.200,169.952 163.200 C 170.688 163.200,172.734 165.291,172.859 166.171 C 172.926 166.640,173.222 166.917,173.735 166.989 C 174.161 167.050,174.877 167.518,175.326 168.029 C 176.435 169.294,178.240 169.375,178.240 168.160 C 178.240 167.484,178.091 167.360,177.280 167.360 C 176.640 167.360,176.320 167.200,176.320 166.880 C 176.320 166.616,176.104 166.400,175.840 166.400 C 175.520 166.400,175.360 166.080,175.360 165.440 C 175.360 164.587,175.253 164.480,174.400 164.480 C 173.760 164.480,173.440 164.320,173.440 164.000 C 173.440 163.736,173.224 163.520,172.960 163.520 C 172.696 163.520,172.480 163.304,172.480 163.040 C 172.480 162.773,172.196 162.560,171.840 162.560 C 171.342 162.560,171.200 162.347,171.200 161.600 C 171.200 160.747,171.093 160.640,170.240 160.640 C 169.493 160.640,169.280 160.498,169.280 160.000 C 169.280 159.644,169.067 159.360,168.800 159.360 C 168.536 159.360,168.320 159.144,168.320 158.880 C 168.320 158.616,168.104 158.400,167.840 158.400 C 167.520 158.400,167.360 158.080,167.360 157.440 C 167.360 156.587,167.253 156.480,166.400 156.480 C 165.760 156.480,165.440 156.320,165.440 156.000 C 165.440 155.736,165.224 155.520,164.960 155.520 C 164.696 155.520,164.480 155.304,164.480 155.040 C 164.480 154.776,164.264 154.560,164.000 154.560 C 163.680 154.560,163.520 154.240,163.520 153.600 C 163.520 152.747,163.413 152.640,162.560 152.640 C 161.920 152.640,161.600 152.480,161.600 152.160 C 161.600 151.896,161.384 151.680,161.120 151.680 C 160.856 151.680,160.640 151.464,160.640 151.200 C 160.640 150.933,160.356 150.720,160.000 150.720 C 159.502 150.720,159.360 150.507,159.360 149.760 C 159.360 148.907,159.253 148.800,158.400 148.800 C 157.653 148.800,157.440 148.658,157.440 148.160 C 157.440 147.804,157.227 147.520,156.960 147.520 C 156.660 147.520,156.480 147.217,156.480 146.710 C 156.480 146.264,156.264 145.817,156.000 145.716 C 155.736 145.614,155.520 145.331,155.520 145.086 C 155.520 144.824,155.190 144.640,154.720 144.640 C 154.280 144.640,153.632 144.352,153.280 144.000 C 152.928 143.648,152.640 143.000,152.640 142.560 C 152.640 142.090,152.456 141.760,152.194 141.760 C 151.949 141.760,151.670 141.554,151.573 141.303 C 151.477 141.052,150.993 140.800,150.499 140.743 C 149.990 140.685,149.635 140.467,149.680 140.240 C 149.724 140.020,149.544 139.840,149.280 139.840 C 148.960 139.840,148.800 139.520,148.800 138.880 C 148.800 137.996,148.711 137.920,147.680 137.920 C 146.763 137.920,146.560 137.801,146.560 137.261 C 146.560 136.876,146.418 136.690,146.218 136.813 C 146.030 136.930,145.798 136.722,145.701 136.352 C 145.604 135.982,145.336 135.680,145.104 135.680 C 144.872 135.680,144.637 135.284,144.581 134.800 C 144.502 134.109,144.291 133.898,143.600 133.819 C 143.116 133.763,142.720 133.583,142.720 133.419 C 142.720 133.254,142.504 133.120,142.240 133.120 C 141.976 133.120,141.760 132.911,141.760 132.656 C 141.760 132.401,141.558 132.077,141.311 131.936 C 141.064 131.795,140.812 131.320,140.751 130.880 C 140.662 130.240,140.432 130.060,139.600 129.980 C 138.956 129.918,138.560 129.704,138.560 129.420 C 138.560 129.167,138.329 128.960,138.046 128.960 C 137.720 128.960,137.599 128.784,137.716 128.480 C 137.841 128.154,137.698 128.000,137.270 128.000 C 136.783 128.000,136.640 127.782,136.640 127.040 C 136.640 126.195,136.529 126.080,135.717 126.080 C 135.064 126.080,134.746 125.893,134.627 125.440 C 134.535 125.088,134.302 124.800,134.110 124.800 C 133.917 124.800,133.760 125.088,133.760 125.440 M98.240 143.338 C 98.240 144.282,98.372 144.640,98.720 144.640 C 98.984 144.640,99.200 144.856,99.200 145.120 C 99.200 145.440,99.520 145.600,100.160 145.600 C 100.800 145.600,101.120 145.760,101.120 146.080 C 101.120 146.379,101.422 146.560,101.920 146.560 C 102.405 146.560,102.720 146.378,102.720 146.096 C 102.720 145.382,101.286 144.000,100.545 144.000 C 100.060 144.000,99.855 143.764,99.781 143.120 C 99.597 141.521,98.240 141.713,98.240 143.338 M103.360 148.960 C 103.360 149.680,103.488 149.760,104.640 149.760 C 105.926 149.760,106.084 149.601,105.726 148.666 C 105.372 147.745,103.360 147.995,103.360 148.960 M107.200 152.800 C 107.200 153.476,107.349 153.600,108.160 153.600 C 109.013 153.600,109.120 153.707,109.120 154.560 C 109.120 155.200,109.280 155.520,109.600 155.520 C 109.864 155.520,110.080 155.736,110.080 156.000 C 110.080 156.264,110.296 156.480,110.560 156.480 C 110.824 156.480,111.040 156.696,111.040 156.960 C 111.040 157.280,111.360 157.440,112.000 157.440 C 112.845 157.440,112.960 157.551,112.960 158.363 C 112.960 159.016,113.147 159.334,113.600 159.453 C 113.952 159.545,114.240 159.860,114.240 160.153 C 114.240 160.509,114.478 160.667,114.960 160.627 C 116.992 160.463,117.120 160.549,117.120 162.080 C 117.120 163.147,117.244 163.520,117.600 163.520 C 117.864 163.520,118.080 163.736,118.080 164.000 C 118.080 164.264,118.296 164.480,118.560 164.480 C 118.824 164.480,119.040 164.696,119.040 164.960 C 119.040 165.280,119.360 165.440,120.000 165.440 C 120.853 165.440,120.960 165.547,120.960 166.400 C 120.960 167.040,121.120 167.360,121.440 167.360 C 121.704 167.360,121.920 167.576,121.920 167.840 C 121.920 168.160,122.240 168.320,122.880 168.320 C 123.520 168.320,123.840 168.480,123.840 168.800 C 123.840 169.064,124.056 169.280,124.320 169.280 C 124.731 169.280,124.977 170.078,124.838 170.960 C 124.817 171.092,125.088 171.200,125.440 171.200 C 125.867 171.200,126.080 171.413,126.080 171.840 C 126.080 172.338,126.293 172.480,127.040 172.480 C 127.680 172.480,128.000 172.640,128.000 172.960 C 128.000 173.224,128.216 173.440,128.480 173.440 C 128.800 173.440,128.960 173.760,128.960 174.400 C 128.960 175.040,129.120 175.360,129.440 175.360 C 129.704 175.360,129.920 175.576,129.920 175.840 C 129.920 176.160,130.240 176.320,130.880 176.320 C 131.733 176.320,131.840 176.427,131.840 177.280 C 131.840 177.920,132.000 178.240,132.320 178.240 C 132.584 178.240,132.800 178.456,132.800 178.720 C 132.800 178.984,133.016 179.200,133.280 179.200 C 133.544 179.200,133.760 179.416,133.760 179.680 C 133.760 180.000,134.080 180.160,134.720 180.160 C 135.573 180.160,135.680 180.267,135.680 181.120 C 135.680 181.760,135.840 182.080,136.160 182.080 C 136.424 182.080,136.640 182.286,136.640 182.538 C 136.640 182.791,136.928 183.088,137.280 183.200 C 137.632 183.312,137.920 183.609,137.920 183.862 C 137.920 184.158,138.260 184.320,138.880 184.320 C 139.733 184.320,139.840 184.427,139.840 185.280 C 139.840 185.920,140.000 186.240,140.320 186.240 C 140.584 186.240,140.800 186.456,140.800 186.720 C 140.800 186.984,141.016 187.200,141.280 187.200 C 141.544 187.200,141.760 187.416,141.760 187.680 C 141.760 188.000,142.080 188.160,142.720 188.160 C 143.573 188.160,143.680 188.267,143.680 189.120 C 143.680 189.760,143.840 190.080,144.160 190.080 C 144.424 190.080,144.640 190.296,144.640 190.560 C 144.640 190.824,144.856 191.040,145.120 191.040 C 145.384 191.040,145.600 191.256,145.600 191.520 C 145.600 191.840,145.920 192.000,146.560 192.000 C 147.475 192.000,147.750 192.463,147.558 193.680 C 147.537 193.812,147.808 193.920,148.160 193.920 C 148.587 193.920,148.800 194.133,148.800 194.560 C 148.800 195.029,149.013 195.200,149.600 195.200 C 150.565 195.200,151.680 196.234,151.680 197.130 C 151.680 197.488,151.896 197.863,152.160 197.964 C 152.424 198.066,152.640 198.349,152.640 198.594 C 152.640 198.856,152.970 199.040,153.440 199.040 C 154.467 199.040,155.520 200.093,155.520 201.120 C 155.520 201.590,155.704 201.920,155.966 201.920 C 156.211 201.920,156.494 202.136,156.596 202.400 C 156.697 202.664,157.144 202.880,157.590 202.880 C 158.277 202.880,158.400 203.026,158.400 203.840 C 158.400 204.603,158.538 204.800,159.074 204.800 C 159.568 204.800,159.694 204.941,159.547 205.325 C 159.377 205.768,159.424 205.786,159.840 205.440 C 160.261 205.091,160.302 205.115,160.113 205.607 C 159.960 206.005,160.008 206.113,160.266 205.954 C 160.487 205.817,160.640 205.916,160.640 206.196 C 160.640 206.462,161.061 206.762,161.600 206.880 C 162.399 207.056,162.560 207.247,162.560 208.025 C 162.560 208.747,162.706 208.960,163.200 208.960 C 163.733 208.960,163.840 208.747,163.840 207.680 C 163.840 206.756,163.707 206.400,163.360 206.400 C 163.096 206.400,162.880 206.256,162.880 206.080 C 162.880 205.904,162.480 205.760,161.991 205.760 C 160.957 205.760,160.000 204.793,160.000 203.747 C 160.000 202.892,158.890 201.827,157.760 201.598 C 157.233 201.491,156.924 201.186,156.856 200.705 C 156.707 199.658,154.704 197.760,153.749 197.760 C 153.114 197.760,152.960 197.599,152.960 196.935 C 152.960 196.016,150.898 193.743,149.889 193.548 C 149.558 193.485,149.235 193.146,149.172 192.796 C 149.017 191.943,147.856 190.720,147.200 190.720 C 146.582 190.720,145.280 189.429,145.280 188.816 C 145.280 188.234,143.765 186.880,143.114 186.880 C 142.425 186.880,141.120 185.362,141.120 184.562 C 141.120 183.874,139.945 182.750,139.200 182.725 C 138.555 182.703,137.280 181.323,137.280 180.646 C 137.280 180.047,136.077 178.907,135.427 178.891 C 134.642 178.870,133.120 177.484,133.120 176.789 C 133.120 176.000,132.299 175.160,131.360 174.990 C 130.984 174.921,130.677 174.573,130.616 174.145 C 130.474 173.144,128.337 170.970,127.360 170.833 C 126.813 170.756,126.527 170.488,126.456 169.987 C 126.322 169.039,124.401 167.118,123.453 166.984 C 122.964 166.915,122.684 166.627,122.613 166.121 C 122.493 165.274,121.065 163.866,120.311 163.850 C 119.700 163.837,118.720 162.723,118.720 162.041 C 118.720 161.312,117.397 160.013,116.640 160.000 C 115.882 159.987,114.560 158.687,114.560 157.955 C 114.560 157.273,113.424 156.161,112.720 156.154 C 112.052 156.148,110.720 154.823,110.720 154.165 C 110.720 153.230,109.305 152.000,108.230 152.000 C 107.345 152.000,107.200 152.112,107.200 152.800 M178.560 170.950 C 178.560 171.894,180.034 173.120,181.170 173.120 C 181.927 173.120,182.080 172.986,182.080 172.320 C 182.080 171.644,181.931 171.520,181.120 171.520 C 180.373 171.520,180.160 171.378,180.160 170.880 C 180.160 170.411,179.947 170.240,179.360 170.240 C 178.747 170.240,178.560 170.406,178.560 170.950 M186.560 178.861 C 186.560 179.203,186.704 179.571,186.880 179.680 C 187.061 179.792,187.200 179.523,187.200 179.059 C 187.200 178.608,187.056 178.240,186.880 178.240 C 186.704 178.240,186.560 178.520,186.560 178.861 M212.480 206.080 C 212.480 206.256,212.051 206.400,211.526 206.400 C 210.517 206.400,209.950 207.423,210.363 208.500 C 210.725 209.442,212.621 208.965,212.743 207.901 C 212.800 207.407,213.052 206.923,213.303 206.827 C 213.990 206.563,213.852 205.760,213.120 205.760 C 212.768 205.760,212.480 205.904,212.480 206.080 M205.321 210.729 C 204.807 212.067,205.083 212.800,206.099 212.800 C 207.035 212.800,207.074 212.747,206.979 211.600 C 206.871 210.287,205.722 209.684,205.321 210.729 M202.773 212.373 C 202.120 213.027,202.599 213.760,203.680 213.760 C 204.566 213.760,204.800 213.633,204.800 213.154 C 204.800 212.355,203.351 211.796,202.773 212.373 M170.599 212.765 C 169.973 213.168,170.451 213.760,171.402 213.760 C 171.994 213.760,172.179 213.613,172.100 213.204 C 171.977 212.565,171.243 212.350,170.599 212.765 M174.461 214.104 C 174.524 214.293,174.713 214.448,174.880 214.448 C 175.047 214.448,175.236 214.293,175.299 214.104 C 175.362 213.915,175.173 213.760,174.880 213.760 C 174.587 213.760,174.398 213.915,174.461 214.104 M178.640 214.613 C 177.811 214.945,178.162 216.640,179.060 216.640 C 179.789 216.640,179.869 216.527,179.780 215.625 C 179.679 214.598,179.368 214.322,178.640 214.613 M194.453 214.613 C 193.766 215.301,194.260 216.640,195.200 216.640 C 196.045 216.640,196.160 216.530,196.160 215.714 C 196.160 214.669,195.089 213.978,194.453 214.613 " stroke="none" fill="#52abd9" fill-rule="evenodd"></path><path id="path4" d="M223.740 104.400 C 223.828 105.320,223.951 105.440,224.800 105.440 C 225.649 105.440,225.772 105.320,225.860 104.400 C 225.957 103.399,225.917 103.360,224.800 103.360 C 223.683 103.360,223.643 103.399,223.740 104.400 M271.600 104.027 C 271.292 104.364,271.040 104.764,271.040 104.915 C 271.040 105.067,268.052 105.368,264.400 105.584 C 260.748 105.801,256.608 106.090,255.200 106.226 L 252.640 106.475 255.099 106.517 C 258.297 106.573,259.197 106.913,259.210 108.072 C 259.225 109.348,259.905 110.080,261.075 110.080 C 261.755 110.080,262.080 110.235,262.080 110.560 C 262.080 110.827,262.364 111.040,262.720 111.040 C 263.238 111.040,263.360 111.253,263.360 112.160 C 263.360 112.942,263.505 113.280,263.840 113.280 C 264.104 113.280,264.320 113.496,264.320 113.760 C 264.320 114.024,264.579 114.240,264.896 114.240 C 265.768 114.240,266.240 114.889,266.240 116.087 C 266.240 117.240,266.837 118.080,267.657 118.080 C 267.934 118.080,268.160 118.296,268.160 118.560 C 268.160 118.880,268.480 119.040,269.120 119.040 C 269.979 119.040,270.080 119.144,270.080 120.025 C 270.080 120.692,270.389 121.319,271.040 121.969 C 271.568 122.497,272.000 123.206,272.000 123.545 C 272.000 123.939,272.222 124.160,272.617 124.160 C 272.957 124.160,273.450 124.376,273.714 124.640 C 273.978 124.904,274.421 125.120,274.697 125.120 C 274.974 125.120,275.200 125.336,275.200 125.600 C 275.200 125.864,275.416 126.080,275.680 126.080 C 276.000 126.080,276.160 126.400,276.160 127.040 C 276.160 127.773,276.305 128.000,276.773 128.000 C 277.147 128.000,277.552 128.375,277.811 128.960 C 278.045 129.488,278.417 129.920,278.638 129.920 C 278.871 129.920,279.040 130.323,279.040 130.880 C 279.040 131.722,279.152 131.840,279.950 131.840 C 280.858 131.840,281.920 132.673,281.920 133.385 C 281.920 133.591,282.136 133.760,282.400 133.760 C 282.776 133.760,282.880 134.200,282.880 135.799 L 282.880 137.838 288.080 138.064 C 294.571 138.345,294.720 138.378,294.720 139.528 C 294.720 140.022,294.540 140.499,294.320 140.588 C 294.100 140.677,295.036 140.761,296.400 140.775 L 298.880 140.800 298.880 139.680 C 298.880 138.578,300.068 138.139,301.920 138.556 C 303.989 139.023,304.640 138.951,304.640 138.257 C 304.640 137.637,304.759 137.575,305.600 137.760 C 306.426 137.942,306.560 137.878,306.560 137.305 C 306.560 136.687,306.741 136.640,309.120 136.640 L 311.680 136.640 311.680 135.680 C 311.680 135.040,311.840 134.720,312.160 134.720 C 312.424 134.720,312.640 134.504,312.640 134.240 C 312.640 133.976,312.856 133.760,313.120 133.760 C 313.384 133.760,313.600 133.544,313.600 133.280 C 313.600 132.924,313.973 132.800,315.040 132.800 C 316.427 132.800,316.480 132.764,316.480 131.840 C 316.480 131.200,316.640 130.880,316.960 130.880 C 317.224 130.880,317.440 130.664,317.440 130.400 C 317.440 130.080,317.760 129.920,318.400 129.920 C 319.040 129.920,319.360 129.760,319.360 129.440 C 319.360 129.176,319.620 128.960,319.937 128.960 C 320.388 128.960,320.532 128.670,320.593 127.642 C 320.635 126.917,320.887 126.107,321.152 125.842 C 322.249 124.745,321.598 124.008,319.440 123.905 C 317.460 123.810,317.440 123.800,317.440 122.865 C 317.440 122.238,317.278 121.920,316.960 121.920 C 316.696 121.920,316.480 121.704,316.480 121.440 C 316.480 121.176,316.264 120.960,316.000 120.960 C 315.680 120.960,315.520 120.640,315.520 120.000 C 315.520 119.147,315.413 119.040,314.560 119.040 C 313.707 119.040,313.600 118.933,313.600 118.080 C 313.600 117.227,313.493 117.120,312.640 117.120 C 311.787 117.120,311.680 117.013,311.680 116.160 C 311.680 115.307,311.573 115.200,310.720 115.200 C 309.870 115.200,309.760 115.092,309.760 114.256 C 309.760 113.737,309.558 113.197,309.311 113.056 C 309.064 112.915,308.812 112.440,308.751 112.000 C 308.662 111.360,308.432 111.180,307.600 111.100 C 306.956 111.038,306.560 110.824,306.560 110.540 C 306.560 110.287,306.344 110.080,306.080 110.080 C 305.816 110.080,305.600 109.864,305.600 109.600 C 305.600 109.244,305.227 109.120,304.160 109.120 L 302.720 109.120 302.720 107.680 L 302.720 106.240 307.680 106.240 L 312.640 106.240 312.640 104.800 L 312.640 103.360 292.400 103.387 C 272.880 103.412,272.140 103.435,271.600 104.027 M219.840 105.770 C 219.840 106.323,220.604 106.719,221.091 106.418 C 221.591 106.109,221.121 105.280,220.446 105.280 C 220.113 105.280,219.840 105.501,219.840 105.770 M216.844 106.720 C 216.719 107.046,216.862 107.200,217.290 107.200 C 217.637 107.200,217.920 106.984,217.920 106.720 C 217.920 106.456,217.719 106.240,217.474 106.240 C 217.229 106.240,216.946 106.456,216.844 106.720 M213.973 107.413 C 213.566 107.821,213.763 109.053,214.266 109.246 C 215.525 109.729,216.000 109.475,216.000 108.320 C 216.000 107.226,214.729 106.657,213.973 107.413 M322.560 121.920 C 322.560 122.773,322.667 122.880,323.520 122.880 C 324.373 122.880,324.480 122.773,324.480 121.920 C 324.480 121.067,324.373 120.960,323.520 120.960 C 322.667 120.960,322.560 121.067,322.560 121.920 M197.120 130.987 C 197.120 131.721,197.269 132.053,197.600 132.053 C 197.931 132.053,198.080 131.721,198.080 130.987 C 198.080 130.252,197.931 129.920,197.600 129.920 C 197.269 129.920,197.120 130.252,197.120 130.987 M223.680 141.259 C 223.680 141.521,223.304 141.761,222.800 141.819 C 222.160 141.892,221.891 142.123,221.814 142.666 C 221.756 143.076,221.432 143.688,221.094 144.026 C 220.756 144.364,220.480 144.779,220.480 144.950 C 220.480 145.406,221.534 144.934,222.018 144.261 C 222.248 143.941,222.788 143.680,223.218 143.680 C 223.839 143.680,224.000 143.515,224.000 142.880 C 224.000 142.382,224.181 142.080,224.480 142.080 C 224.747 142.080,224.960 141.796,224.960 141.440 C 224.960 141.013,224.747 140.800,224.320 140.800 C 223.968 140.800,223.680 141.006,223.680 141.259 M217.920 146.720 C 217.920 147.751,217.996 147.840,218.880 147.840 C 219.764 147.840,219.840 147.751,219.840 146.720 C 219.840 145.689,219.764 145.600,218.880 145.600 C 217.996 145.600,217.920 145.689,217.920 146.720 M217.038 147.751 C 216.817 147.830,216.723 148.036,216.830 148.209 C 216.937 148.382,216.722 148.602,216.352 148.699 C 215.865 148.826,215.680 149.129,215.680 149.797 C 215.680 150.609,215.565 150.720,214.720 150.720 C 214.080 150.720,213.760 150.880,213.760 151.200 C 213.760 151.464,213.544 151.680,213.280 151.680 C 213.016 151.680,212.800 151.881,212.800 152.126 C 212.800 152.371,212.584 152.654,212.320 152.756 C 212.056 152.857,211.840 153.304,211.840 153.750 C 211.840 154.403,211.683 154.560,211.030 154.560 C 210.584 154.560,210.137 154.776,210.036 155.040 C 209.934 155.304,209.651 155.520,209.406 155.520 C 209.161 155.520,208.960 155.721,208.960 155.966 C 208.960 156.211,208.744 156.494,208.480 156.596 C 208.216 156.697,208.000 157.144,208.000 157.590 C 208.000 158.346,207.461 158.618,206.320 158.438 C 206.188 158.417,206.080 158.616,206.080 158.880 C 206.080 159.144,205.874 159.360,205.622 159.360 C 205.369 159.360,205.072 159.648,204.960 160.000 C 204.848 160.352,204.551 160.640,204.298 160.640 C 204.002 160.640,203.840 160.980,203.840 161.600 C 203.840 162.386,203.708 162.560,203.111 162.560 C 202.707 162.560,202.019 162.975,201.566 163.491 C 201.117 164.002,200.401 164.470,199.975 164.531 C 199.448 164.605,199.166 164.879,199.094 165.386 C 198.983 166.169,197.985 167.360,197.440 167.360 C 197.264 167.360,197.120 167.566,197.120 167.819 C 197.120 168.081,196.744 168.321,196.240 168.379 C 195.549 168.458,195.338 168.669,195.259 169.360 C 195.201 169.864,194.961 170.240,194.699 170.240 C 194.284 170.240,194.099 170.628,194.202 171.280 C 194.223 171.412,193.952 171.520,193.600 171.520 C 193.244 171.520,192.960 171.733,192.960 172.000 C 192.960 172.320,192.640 172.480,192.000 172.480 C 191.147 172.480,191.040 172.587,191.040 173.440 C 191.040 174.080,190.880 174.400,190.560 174.400 C 190.296 174.400,190.080 174.616,190.080 174.880 C 190.080 175.144,189.864 175.360,189.600 175.360 C 189.280 175.360,189.120 175.680,189.120 176.320 C 189.120 177.173,189.013 177.280,188.160 177.280 C 187.413 177.280,187.200 177.422,187.200 177.920 C 187.200 178.713,189.029 178.851,189.324 178.080 C 189.426 177.816,189.709 177.600,189.954 177.600 C 190.228 177.600,190.400 177.258,190.400 176.711 C 190.400 175.651,191.374 174.720,192.484 174.720 C 193.129 174.720,193.280 174.561,193.280 173.882 C 193.280 172.851,195.460 170.560,196.442 170.560 C 196.923 170.560,197.120 170.359,197.120 169.870 C 197.120 169.024,199.380 166.807,200.388 166.664 C 200.953 166.584,201.143 166.323,201.220 165.520 C 201.282 164.876,201.496 164.480,201.780 164.480 C 202.033 164.480,202.240 164.264,202.240 164.000 C 202.240 163.680,202.560 163.520,203.200 163.520 C 203.840 163.520,204.160 163.360,204.160 163.040 C 204.160 162.776,204.376 162.560,204.640 162.560 C 204.960 162.560,205.120 162.240,205.120 161.600 C 205.120 160.960,205.280 160.640,205.600 160.640 C 205.864 160.640,206.080 160.424,206.080 160.160 C 206.080 159.844,206.396 159.680,207.006 159.680 C 207.533 159.680,208.011 159.474,208.116 159.200 C 208.217 158.936,208.520 158.720,208.790 158.720 C 209.099 158.720,209.280 158.425,209.280 157.920 C 209.280 156.998,210.300 155.843,211.120 155.834 C 211.943 155.826,213.120 154.437,213.120 153.475 C 213.120 152.946,213.296 152.640,213.600 152.640 C 213.864 152.640,214.080 152.424,214.080 152.160 C 214.080 151.840,214.400 151.680,215.040 151.680 C 215.680 151.680,216.000 151.520,216.000 151.200 C 216.000 150.936,216.216 150.720,216.480 150.720 C 216.800 150.720,216.960 150.400,216.960 149.760 C 216.960 149.120,217.120 148.800,217.440 148.800 C 217.704 148.800,217.920 148.592,217.920 148.339 C 217.920 147.782,217.581 147.556,217.038 147.751 M261.856 156.609 C 261.715 156.856,261.240 157.108,260.800 157.169 C 260.229 157.248,259.968 157.509,259.889 158.080 C 259.828 158.520,259.576 158.995,259.329 159.136 C 258.628 159.535,258.768 160.640,259.520 160.640 C 259.947 160.640,260.160 160.427,260.160 160.000 C 260.160 159.502,260.373 159.360,261.120 159.360 C 261.973 159.360,262.080 159.253,262.080 158.400 C 262.080 157.653,262.222 157.440,262.720 157.440 C 263.147 157.440,263.360 157.227,263.360 156.800 C 263.360 156.048,262.255 155.908,261.856 156.609 M115.320 160.704 C 115.064 161.118,115.405 161.392,116.332 161.516 C 116.848 161.586,117.120 161.466,117.120 161.168 C 117.120 160.647,115.598 160.255,115.320 160.704 M256.000 162.240 C 256.000 162.847,255.836 163.200,255.554 163.200 C 255.309 163.200,255.026 163.416,254.924 163.680 C 254.823 163.944,254.376 164.160,253.930 164.160 C 253.416 164.160,253.120 164.339,253.120 164.650 C 253.120 164.920,252.904 165.223,252.640 165.324 C 252.366 165.429,252.160 165.907,252.160 166.434 C 252.160 167.044,251.996 167.360,251.680 167.360 C 251.416 167.360,251.200 167.576,251.200 167.840 C 251.200 168.160,250.880 168.320,250.240 168.320 C 249.600 168.320,249.280 168.480,249.280 168.800 C 249.280 169.064,249.080 169.280,248.835 169.280 C 248.569 169.280,248.340 169.710,248.265 170.352 C 248.160 171.253,248.231 171.400,248.710 171.274 C 249.090 171.175,249.280 170.819,249.280 170.203 C 249.280 169.391,249.395 169.280,250.240 169.280 C 250.880 169.280,251.200 169.120,251.200 168.800 C 251.200 168.536,251.401 168.320,251.646 168.320 C 251.891 168.320,252.174 168.104,252.276 167.840 C 252.377 167.576,252.687 167.360,252.964 167.360 C 253.241 167.360,253.445 167.180,253.416 166.960 C 253.260 165.755,253.463 165.440,254.400 165.440 C 255.040 165.440,255.360 165.280,255.360 164.960 C 255.360 164.696,255.576 164.480,255.840 164.480 C 256.104 164.480,256.320 164.264,256.320 164.000 C 256.320 163.680,256.640 163.520,257.280 163.520 C 258.164 163.520,258.240 163.431,258.240 162.400 C 258.240 161.333,258.187 161.280,257.120 161.280 C 256.089 161.280,256.000 161.356,256.000 162.240 M244.480 174.213 C 244.480 175.019,244.337 175.360,244.000 175.360 C 243.736 175.360,243.520 175.576,243.520 175.840 C 243.520 176.104,243.736 176.320,244.000 176.320 C 244.264 176.320,244.480 176.104,244.480 175.840 C 244.480 175.576,244.705 175.360,244.980 175.360 C 245.350 175.360,245.454 175.095,245.380 174.345 C 245.235 172.878,244.480 172.767,244.480 174.213 " stroke="none" fill="#a6a6a9" fill-rule="evenodd"></path></g></svg>